<?xml version="1.0" encoding="utf-8"?>
<!-- Generator: Adobe Illustrator 23.0.1, SVG Export Plug-In . SVG Version: 6.00 Build 0)  -->
<svg version="1.1" id="Layer_1" xmlns="http://www.w3.org/2000/svg" xmlns:xlink="http://www.w3.org/1999/xlink" x="0px" y="0px"
	 viewBox="0 0 42.9 25" style="enable-background:new 0 0 42.9 25;" xml:space="preserve">
<style type="text/css">
	.st0{clip-path:url(#SVGID_2_);fill:#FFFFFF;}
	.st1{clip-path:url(#SVGID_2_);fill:#3E3E3E;}
	.st2{clip-path:url(#SVGID_2_);fill:#2A2A2A;}
</style>
<g id="UNITED_KINGDOM_2_">
	<g>
		<g>
			<defs>
				<rect id="SVGID_1_" x="0" width="42.9" height="25"/>
			</defs>
			<clipPath id="SVGID_2_">
				<use xlink:href="#SVGID_1_"  style="overflow:visible;"/>
			</clipPath>
			<rect x="0" class="st0" width="42.9" height="25"/>
			<polygon class="st1" points="28.7,9 42.9,1.1 42.9,0 41.9,0 25.7,9 			"/>
			<polygon class="st1" points="28,16.5 42.9,24.8 42.9,23.1 31,16.5 			"/>
			<polygon class="st1" points="0,1.9 12.7,9 15.7,9 0,0.2 			"/>
			<polygon class="st1" points="15,16.5 0,24.9 0,25 2.7,25 17.9,16.5 			"/>
			<polygon class="st2" points="39.9,0 24.9,0 24.9,8.4 			"/>
			<polygon class="st2" points="18.3,0 3.3,0 18.3,8.4 			"/>
			<polygon class="st2" points="42.9,9 42.9,3.3 32.7,9 			"/>
			<polygon class="st2" points="42.9,22.1 42.9,16.5 32.7,16.5 			"/>
			<polygon class="st2" points="4.2,25 18.3,25 18.3,17.1 			"/>
			<polygon class="st2" points="24.9,25 39.1,25 24.9,17.1 			"/>
			<polygon class="st2" points="0,16.5 0,22.4 10.5,16.5 			"/>
			<polygon class="st2" points="0,9 10.5,9 0,3.1 			"/>
			<polygon class="st1" points="19.6,0 19.6,10.5 0,10.5 0,15 19.6,15 19.6,25 23.6,25 23.6,15 42.9,15 42.9,10.5 23.6,10.5 23.6,0 
							"/>
		</g>
	</g>
</g>
</svg>
