<?xml version="1.0" encoding="utf-8"?>
<!-- Generator: Adobe Illustrator 23.0.1, SVG Export Plug-In . SVG Version: 6.00 Build 0)  -->
<svg version="1.1" id="Layer_1" xmlns="http://www.w3.org/2000/svg" xmlns:xlink="http://www.w3.org/1999/xlink" x="0px" y="0px"
	 viewBox="0 0 338 430" style="enable-background:new 0 0 338 430;" xml:space="preserve">
<style type="text/css">
	.st0{fill:#FFFFFF;}
</style>
<g>
	<path class="st0" d="M302.85,345.49c-4.64-13.86-0.65-27.22,8.94-31.11l-0.44-1.32c-10.28,2.34-21.26-5.66-24.82-16.36L187.92,2
		H8.66l3.64,7.03h23.87c17.1,0,30.01,9.41,30.79,21.37h1.63c1.16-11.92,13.3-21.37,26.08-21.37h15.43
		c17.89,0,31.46,17.28,25.87,33.98L6.47,430h41.56l8.61-25.75C62,388.27,75.08,375,85.8,377.8l0.46-1.39
		c-9.63-4.28-13.86-16.69-11.07-27.58l27.35-81.75L168.8,394.9l66.26-127.82L289.56,430h41.56L302.85,345.49z M206.56,248.92
		c-5.35,7.76-15.26,12.13-23.47,8.8l-0.59,1.14c8.03,4.89,9.57,17.11,3.87,29.02l-17.58,33.9l-16.94-32.74
		c-6.38-12.26-5-25.13,3.28-30.18l-0.59-1.14c-8.31,3.37-18.37-1.15-23.67-9.1l-13.47-25.97l1.28-3.82
		c4.39-9.23,14.23-15.61,23.59-13.46l0.44-1.32c-8.76-3.57-12.62-14.87-9.89-27.46l35.98-107.45l35.69,106.65
		c3.08,12.9-0.76,24.61-9.71,28.25l0.44,1.32c9.55-2.19,19.61,4.5,23.86,14.05l1.08,3.23L206.56,248.92z"/>
	<path class="st0" d="M168.8,264.03c-1.09,2.89-2.99,5.64-5.93,7.2c-1.34,1.47-1.43,3.92-0.2,6.43l6.13,11.79l6.13-11.79
		c1.23-2.51,1.13-4.96-0.2-6.43C171.78,269.68,169.89,266.92,168.8,264.03z"/>
	<path class="st0" d="M182.8,186.72c1.44-1.12,1.53-3.4,0.99-5.02l-14.98-44.77h-0.03L153.8,181.7c-0.54,1.62-0.45,3.91,0.99,5.02
		c16.62,11.34,8.75,38.96-11.69,39.71c0.65,1.26,5.4,10.67,5.76,10.99c7.1-1.97,14.63-0.04,19.91,4.81h0.02h0.02
		c5.27-4.85,12.81-6.78,19.91-4.81c0.35-0.32,5.11-9.73,5.76-10.99C174.05,225.68,166.18,198.07,182.8,186.72z"/>
</g>
</svg>
