<?xml version="1.0" encoding="utf-8"?>
<!-- Generator: Adobe Illustrator 16.2.0, SVG Export Plug-In . SVG Version: 6.00 Build 0)  -->
<!DOCTYPE svg PUBLIC "-//W3C//DTD SVG 1.1//EN" "http://www.w3.org/Graphics/SVG/1.1/DTD/svg11.dtd">
<svg version="1.1" id="Layer_1" xmlns="http://www.w3.org/2000/svg" xmlns:xlink="http://www.w3.org/1999/xlink" x="0px" y="0px"
	 width="996px" height="213px" viewBox="-76.555 191.14 996 213" enable-background="new -76.555 191.14 996 213"
	 xml:space="preserve">
<g>
	<path fill="#FFFFFF" d="M17.901,239.907c0,5.665-1.183,11.328-3.485,17.055c-2.303,5.726-5.479,9.896-9.337,12.385
		c4.108,2.552,7.22,6.224,9.46,11.079c2.241,4.854,3.361,10.02,3.361,15.436v65.912c0,7.407-1.867,14.191-5.54,20.416
		c-3.672,6.224-8.651,11.202-14.875,14.875c-6.224,3.672-13.009,5.539-20.416,5.539h-8.713c-7.407,0-14.19-1.867-20.415-5.539
		c-6.224-3.673-11.204-8.651-14.876-14.875c-3.672-6.225-5.54-13.009-5.54-20.416v-34.979h28.008v34.979
		c0,4.108,1.432,7.532,4.232,10.332c2.802,2.802,6.287,4.233,10.332,4.233h5.229c4.108,0,7.531-1.432,10.332-4.233
		c2.801-2.8,4.232-6.286,4.232-10.332v-64.73c0-4.107-1.431-7.531-4.232-10.332c-2.801-2.801-6.286-4.232-10.332-4.232h-7.593
		v-26.265h7.593c3.921,0,7.282-1.867,10.208-5.54s4.356-7.655,4.356-11.951V195.53h28.009V239.907z"/>
	<path fill="#FFFFFF" d="M101.615,233.496c0-4.107-1.432-7.531-4.232-10.331c-2.802-2.802-6.287-4.233-10.332-4.233H86.74
		c-4.108,0-7.532,1.431-10.333,4.233c-2.801,2.8-4.233,6.285-4.233,10.331v166.246H44.166V233.496c0-7.406,1.867-14.19,5.54-20.415
		c3.672-6.224,8.652-11.203,14.876-14.875s13.007-5.54,20.415-5.54h3.236c5.042,0,10.208,1.244,15.436,3.796
		c5.229,2.552,9.212,5.727,11.951,9.647c2.738-3.858,6.723-7.096,11.95-9.647c5.229-2.552,10.395-3.796,15.436-3.796h3.236
		c7.407,0,14.191,1.867,20.416,5.54s11.203,8.651,14.875,14.875c3.672,6.224,5.54,13.009,5.54,20.415v166.246h-28.008V233.496
		c0-4.107-1.433-7.531-4.233-10.331c-2.8-2.802-6.286-4.233-10.332-4.233h-0.311c-4.108,0-7.53,1.431-10.332,4.233
		c-2.8,2.8-4.232,6.285-4.232,10.331v80.478h-28.008V233.496z"/>
	<path fill="#FFFFFF" d="M255.847,218.869c-4.108,0-7.532,1.431-10.333,4.233c-2.8,2.8-4.231,6.287-4.231,10.332v40.829h0.56
		c1.93-1.182,4.73-2.302,8.34-3.36c3.611-1.059,7.221-1.619,10.954-1.619h1.744c7.407,0,14.19,1.867,20.415,5.539
		c6.224,3.672,11.204,8.651,14.876,14.875c3.672,6.224,5.54,13.009,5.54,20.416v51.597c0,7.407-1.867,14.191-5.54,20.416
		c-3.672,6.224-8.652,11.202-14.876,14.875c-6.224,3.672-13.008,5.539-20.415,5.539h-8.776c-7.407,0-14.191-1.867-20.416-5.539
		c-6.224-3.673-11.203-8.651-14.875-14.875c-3.672-6.225-5.54-13.009-5.54-20.416V233.496c0-7.406,1.867-14.19,5.54-20.415
		s8.651-11.203,14.875-14.875s13.009-5.54,20.416-5.54h52.469v26.265h-50.726V218.869z M275.701,310.177
		c0-4.108-1.431-7.532-4.233-10.332c-2.8-2.802-6.285-4.233-10.331-4.233h-5.228c-4.108,0-7.532,1.432-10.333,4.233
		c-2.8,2.8-4.233,6.286-4.233,10.332v51.597c0,4.108,1.433,7.532,4.233,10.332c2.801,2.802,6.287,4.233,10.333,4.233h5.228
		c4.107,0,7.531-1.432,10.331-4.233c2.802-2.8,4.233-6.286,4.233-10.332V310.177z"/>
	<path fill="#FFFFFF" d="M332.838,305.197h28.009v50.479c0,5.663,1.991,10.518,5.975,14.563c3.983,4.108,8.9,6.101,14.75,6.101
		h5.229c5.851,0,10.768-2.055,14.751-6.101c3.983-4.108,5.976-8.962,5.976-14.563v-41.391c0-4.481-0.935-8.216-2.739-11.203
		c-1.867-2.988-4.917-6.349-9.212-10.084v18.984h-26.265v-6.163c0-9.708,2.552-18.983,7.593-27.696l-6.099-4.98
		c-8.154-6.41-13.818-12.759-16.93-18.983c-3.112-6.224-4.667-13.693-4.667-22.469c0-7.157,1.742-13.754,5.227-19.667
		c3.486-5.913,8.216-10.643,14.129-14.129c5.913-3.485,12.386-5.228,19.419-5.228c10.892,0,20.041,3.796,27.448,11.39
		c7.407,7.593,11.079,16.805,11.079,27.696c0,6.412-1.308,12.698-3.922,18.797c-2.613,6.099-6.846,12.884-12.696,20.291l6.411,4.979
		c12.821,9.71,19.231,22.656,19.231,38.777v40.83c0,8.526-2.115,16.493-6.286,23.775c-4.169,7.282-9.896,13.008-17.178,17.179
		c-7.282,4.17-15.187,6.286-23.775,6.286h-8.154c-8.527,0-16.494-2.116-23.776-6.286c-7.282-4.171-13.009-9.896-17.178-17.179
		c-4.17-7.282-6.286-15.187-6.286-23.775v-50.229H332.838z M377.9,244.139c1.681,3.237,4.731,6.474,9.211,9.772l3.797,2.925
		l3.485-4.98c3.859-5.663,5.851-11.825,5.851-18.672c0-4.48-1.182-7.967-3.485-10.519s-5.229-3.797-8.776-3.797
		c-3.485,0-6.473,1.308-8.901,3.922c-2.427,2.613-3.672,5.913-3.672,9.771C375.411,237.044,376.282,240.903,377.9,244.139z"/>
	<path fill="#FFFFFF" d="M461.739,313.973h28.009v47.801c0,4.108,1.432,7.532,4.231,10.332c2.801,2.802,6.287,4.233,10.332,4.233
		h5.229c4.108,0,7.531-1.432,10.333-4.233c2.8-2.8,4.231-6.286,4.231-10.332v-92.427c0-4.855-0.747-8.963-2.304-12.262
		c-1.555-3.299-4.169-6.41-7.841-9.335l-23.652-18.673c-4.855-3.858-8.465-7.716-10.768-11.514
		c-2.303-3.797-3.485-8.527-3.485-14.129v-7.904h28.009v2.925c0,3.672,0.747,6.535,2.179,8.59c1.431,2.053,3.235,3.858,5.227,5.415
		c2.055,1.556,3.424,2.614,4.233,3.236l19.544,15.436c6.971,5.477,11.576,10.581,13.691,15.436
		c2.117,4.855,3.236,12.634,3.236,23.339v91.868c0,7.407-1.865,14.191-5.538,20.416c-3.672,6.224-8.652,11.202-14.876,14.875
		c-6.224,3.672-13.008,5.539-20.414,5.539h-8.776c-7.406,0-14.191-1.867-20.415-5.539c-6.225-3.673-11.203-8.651-14.875-14.875
		c-3.673-6.225-5.54-13.009-5.54-20.416V313.973L461.739,313.973z"/>
	<path fill="#FFFFFF" d="M578.377,340.177h28.009v21.598c0,4.108,1.432,7.532,4.231,10.332c2.802,2.802,6.287,4.233,10.332,4.233
		h5.229c4.108,0,7.531-1.432,10.333-4.233c2.8-2.8,4.231-6.286,4.231-10.332v-90.996c-1.556-0.561-3.733-1.058-6.535-1.432
		c-2.801-0.374-5.415-0.561-7.718-0.561h-2.054c-4.854,0-8.713,1.183-11.515,3.486c-2.801,2.303-4.232,5.851-4.232,10.519v5.229
		h-28.008v-5.229c0-11.826,3.734-21.535,11.202-29.004c7.47-7.468,17.055-11.203,28.756-11.203h2.303
		c6.037,0,11.764,0.685,17.179,2.054h0.561V195.53h28.008v166.245c0,7.407-1.867,14.191-5.54,20.416
		c-3.672,6.224-8.65,11.202-14.875,14.875c-6.224,3.672-13.009,5.539-20.415,5.539h-8.776c-7.405,0-14.19-1.867-20.414-5.539
		c-6.225-3.673-11.204-8.651-14.876-14.875c-3.671-6.225-5.539-13.009-5.539-20.416v-21.598H578.377z"/>
	<path fill="#FFFFFF" d="M695.078,305.197h28.009v50.479c0,5.663,1.992,10.518,5.976,14.563c3.983,4.108,8.899,6.101,14.751,6.101
		h5.228c5.851,0,10.768-2.055,14.751-6.101c3.983-4.108,5.976-8.962,5.976-14.563v-41.391c0-4.481-0.935-8.216-2.739-11.203
		c-1.867-2.988-4.916-6.349-9.212-10.084v18.984h-26.265v-6.163c0-9.708,2.552-18.983,7.593-27.696l-6.099-4.98
		c-8.154-6.41-13.817-12.759-16.93-18.983c-3.113-6.224-4.668-13.693-4.668-22.469c0-7.157,1.742-13.754,5.228-19.667
		s8.216-10.643,14.129-14.129c5.913-3.485,12.386-5.228,19.419-5.228c10.892,0,20.042,3.796,27.448,11.39
		c7.406,7.593,11.079,16.805,11.079,27.696c0,6.412-1.307,12.698-3.921,18.797s-6.848,12.884-12.698,20.291l6.411,4.979
		c12.821,9.71,19.233,22.656,19.233,38.777v40.83c0,8.526-2.117,16.493-6.287,23.775s-9.896,13.008-17.178,17.179
		c-7.283,4.17-15.188,6.286-23.777,6.286h-8.153c-8.526,0-16.493-2.116-23.775-6.286c-7.282-4.171-13.008-9.896-17.179-17.179
		c-4.17-7.282-6.286-15.187-6.286-23.775v-50.229H695.078z M740.079,244.139c1.617,3.237,4.729,6.474,9.211,9.772l3.797,2.925
		l3.485-4.98c3.858-5.663,5.851-11.825,5.851-18.672c0-4.48-1.183-7.967-3.486-10.519c-2.302-2.552-5.227-3.797-8.775-3.797
		c-3.484,0-6.473,1.308-8.899,3.922c-2.428,2.613-3.672,5.913-3.672,9.771C737.651,237.044,738.46,240.903,740.079,244.139z"/>
	<path fill="#FFFFFF" d="M886.344,399.679V233.496c0-4.107-1.432-7.531-4.231-10.331c-2.801-2.802-6.287-4.233-10.333-4.233h-5.228
		c-4.107,0-7.531,1.431-10.333,4.233c-2.8,2.8-4.231,6.285-4.231,10.331v166.246h-28.009V233.496c0-7.406,1.867-14.19,5.54-20.415
		c3.672-6.224,8.651-11.203,14.876-14.875c6.224-3.672,13.008-5.54,20.414-5.54h8.776c7.406,0,14.191,1.867,20.415,5.54
		c6.225,3.672,11.203,8.651,14.875,14.875c3.673,6.224,5.54,13.009,5.54,20.415v166.246h-28.071V399.679z"/>
</g>
</svg>
