<?xml version="1.0" encoding="utf-8"?>
<!-- Generator: Adobe Illustrator 23.0.1, SVG Export Plug-In . SVG Version: 6.00 Build 0)  -->
<svg version="1.1" id="Layer_1" xmlns="http://www.w3.org/2000/svg" xmlns:xlink="http://www.w3.org/1999/xlink" x="0px" y="0px"
	 viewBox="0 0 42.9 25" style="enable-background:new 0 0 42.9 25;" xml:space="preserve">
<style type="text/css">
	.st0{fill:#FFFFFF;}
	.st1{clip-path:url(#SVGID_3_);}
	.st2{clip-path:url(#SVGID_5_);fill:#D50037;}
	.st3{clip-path:url(#SVGID_7_);fill:#D50037;}
	.st4{clip-path:url(#SVGID_9_);fill:#D50037;}
	.st5{clip-path:url(#SVGID_11_);fill:#D50037;}
	.st6{clip-path:url(#SVGID_13_);fill:#D50037;}
	.st7{clip-path:url(#SVGID_15_);fill:#D50037;}
</style>
<g>
	<g>
		<g>
			<rect id="SVGID_1_" x="0" class="st0" width="42.9" height="25"/>
		</g>
		<g>
			<defs>
				<rect id="SVGID_2_" x="0" width="42.9" height="25"/>
			</defs>
			<clipPath id="SVGID_3_">
				<use xlink:href="#SVGID_2_"  style="overflow:visible;"/>
			</clipPath>
			<g class="st1">
				<g>
					<defs>
						<rect id="SVGID_4_" x="0" width="42.9" height="25"/>
					</defs>
					<clipPath id="SVGID_5_">
						<use xlink:href="#SVGID_4_"  style="overflow:visible;"/>
					</clipPath>
					<path class="st2" d="M10.2,5.6c0,0.5-0.1,0.9-0.1,1.4c0,0.1,0,0.3-0.1,0.4c0.3,0,0.6,0,0.8,0s0.6,0,0.8,0c0-0.1,0-0.3-0.1-0.4
						c-0.1-0.5-0.1-0.9-0.1-1.4c0.6,0,1.2,0.1,1.8,0.2c0-0.3,0-0.6,0-0.8s0-0.6,0-0.9c-0.6,0.1-1.2,0.2-1.8,0.2
						c0-0.6,0.1-1.2,0.2-1.8c-0.3,0-0.6,0-0.8,0s-0.6,0-0.8,0c0.1,0.6,0.2,1.2,0.2,1.8C9.6,4.3,9,4.3,8.4,4.1c0,0.3,0,0.6,0,0.9
						c0,0.3,0,0.6,0,0.8C9,5.7,9.5,5.7,10.2,5.6"/>
				</g>
				<g>
					<defs>
						<rect id="SVGID_6_" x="0" width="42.9" height="25"/>
					</defs>
					<clipPath id="SVGID_7_">
						<use xlink:href="#SVGID_6_"  style="overflow:visible;"/>
					</clipPath>
					<path class="st3" d="M31.4,5.6c0,0.5-0.1,0.9-0.1,1.4c0,0.1,0,0.3-0.1,0.4c0.3,0,0.6,0,0.8,0s0.6,0,0.8,0c0-0.1,0-0.3-0.1-0.4
						c-0.1-0.5-0.1-0.9-0.1-1.4c0.6,0,1.2,0.1,1.8,0.2c0-0.3-0.1-0.6-0.1-0.8s0-0.6,0.1-0.9c-0.6,0.1-1.2,0.2-1.8,0.2
						c0-0.6,0.1-1.2,0.2-1.8c-0.3,0-0.6,0-0.8,0s-0.6,0-0.8,0c0.1,0.6,0.2,1.2,0.2,1.8c-0.6,0-1.2-0.1-1.8-0.2c0,0.3,0,0.6,0,0.9
						c0,0.3,0,0.6,0,0.8C30.2,5.7,30.8,5.7,31.4,5.6"/>
				</g>
				<g>
					<defs>
						<rect id="SVGID_8_" x="0" width="42.9" height="25"/>
					</defs>
					<clipPath id="SVGID_9_">
						<use xlink:href="#SVGID_8_"  style="overflow:visible;"/>
					</clipPath>
					<path class="st4" d="M11.4,19.4c0-0.5,0.1-0.9,0.1-1.4c0-0.1,0-0.3,0.1-0.4c-0.3,0-0.6,0-0.8,0s-0.6,0-0.8,0
						c0,0.1,0,0.3,0.1,0.4c0.1,0.4,0.1,0.9,0.1,1.4c-0.6,0-1.2-0.1-1.8-0.2c0,0.3,0,0.6,0,0.8s0,0.6,0,0.8c0.6-0.1,1.2-0.2,1.8-0.2
						c0,0.6-0.1,1.2-0.2,1.8c0.3,0,0.6,0,0.8,0s0.6,0,0.8,0c-0.1-0.6-0.2-1.2-0.2-1.8c0.6,0,1.2,0.1,1.8,0.2c0-0.3,0-0.6,0-0.8
						s0-0.6,0-0.8C12.6,19.3,12.1,19.3,11.4,19.4"/>
				</g>
				<g>
					<defs>
						<rect id="SVGID_10_" x="0" width="42.9" height="25"/>
					</defs>
					<clipPath id="SVGID_11_">
						<use xlink:href="#SVGID_10_"  style="overflow:visible;"/>
					</clipPath>
					<path class="st5" d="M32.7,19.4c0-0.5,0.1-0.9,0.1-1.4c0-0.1,0-0.3,0.1-0.4c-0.3,0-0.6,0-0.8,0s-0.6,0-0.8,0
						c0,0.1,0,0.3,0.1,0.4c0.1,0.4,0.1,0.9,0.1,1.4c-0.6,0-1.2-0.1-1.8-0.2c0,0.3,0,0.6,0,0.8s0,0.6,0,0.8c0.6-0.1,1.2-0.2,1.8-0.2
						c0,0.6-0.1,1.2-0.2,1.8c0.3,0,0.6,0,0.8,0s0.6,0,0.8,0c-0.1-0.6-0.2-1.2-0.2-1.8c0.6,0,1.2,0.1,1.8,0.2c0-0.3-0.1-0.6-0.1-0.8
						s0-0.6,0.1-0.8C33.9,19.3,33.3,19.3,32.7,19.4"/>
				</g>
				<g>
					<defs>
						<rect id="SVGID_12_" x="0" width="42.9" height="25"/>
					</defs>
					<clipPath id="SVGID_13_">
						<use xlink:href="#SVGID_12_"  style="overflow:visible;"/>
					</clipPath>
					<rect x="18.9" class="st6" width="5" height="25"/>
				</g>
				<g>
					<defs>
						<rect id="SVGID_14_" x="0" width="42.9" height="25"/>
					</defs>
					<clipPath id="SVGID_15_">
						<use xlink:href="#SVGID_14_"  style="overflow:visible;"/>
					</clipPath>
					<rect x="0" y="10" class="st7" width="42.9" height="5"/>
				</g>
			</g>
		</g>
	</g>
</g>
</svg>
