<?xml version="1.0" encoding="utf-8"?>
<!-- Generator: Adobe Illustrator 16.2.0, SVG Export Plug-In . SVG Version: 6.00 Build 0)  -->
<!DOCTYPE svg PUBLIC "-//W3C//DTD SVG 1.1//EN" "http://www.w3.org/Graphics/SVG/1.1/DTD/svg11.dtd">
<svg version="1.1" id="Layer_1" xmlns="http://www.w3.org/2000/svg" xmlns:xlink="http://www.w3.org/1999/xlink" x="0px" y="0px"
	 width="1625.917px" height="360px" viewBox="-548.421 117.64 1625.917 360" enable-background="new -548.421 117.64 1625.917 360"
	 xml:space="preserve">
<g>
	<g>
		<path fill="#FFFFFF" d="M-540.399,244.247h6.422c-2.14-4.832-3.181-10.092-3.181-15.72v-65.026
			c0-10.093,3.244-18.412,9.789-24.895c6.483-6.485,14.618-9.789,24.345-9.789h9.055c4.28,0,8.624,1.102,12.968,3.181
			c4.343,2.142,7.645,5.077,9.787,8.748c2.141-3.487,5.628-6.362,10.459-8.625c4.833-2.203,9.238-3.365,13.091-3.365h9.053
			c8.932,0,16.395,3.181,22.267,9.604c5.934,6.422,8.869,14.313,8.869,23.612v66.738h-27.955v-63.129
			c0-3.119-0.916-5.628-2.751-7.584c-1.836-1.958-4.405-2.937-7.708-2.937h-2.019c-3.304,0-5.872,0.979-7.708,2.937
			c-1.835,1.957-2.753,4.466-2.753,7.584v44.594h-27.832v-44.594c0-3.119-0.918-5.628-2.753-7.584
			c-1.835-1.958-4.403-2.937-7.708-2.937h-2.08c-3.304,0-5.872,0.979-7.708,2.937c-1.896,1.957-2.814,4.466-2.814,7.584v57.99
			c0,6.606,0.795,12.48,2.508,17.618c1.652,5.138,5.26,9.482,10.951,12.968l19.818,12.234
			c18.291,11.255,32.054,20.737,41.413,28.445c9.297,7.707,15.599,14.557,18.779,20.674c3.181,6.118,4.833,12.848,4.833,20.248
			h-27.955c-0.611-6.606-5.812-14.009-15.721-22.144c-9.91-8.136-21.349-15.721-34.378-22.755
			c-13.03-6.973-23.796-11.929-32.359-14.865c-5.627-1.957-11.929-3.18-18.964-3.793v-27.955H-540.399z"/>
		<path fill="#FFFFFF" d="M-381.293,262.905h27.955v34.989c0,4.098,1.406,7.524,4.22,10.337c2.814,2.813,6.239,4.222,10.338,4.222
			h5.261c4.099,0,7.524-1.408,10.338-4.222c2.813-2.813,4.222-6.239,4.222-10.337v-45.45c0-4.099-1.408-7.524-4.222-10.337
			c-2.814-2.814-6.239-4.222-10.338-4.222h-7.524v-26.241h7.586c4.097,0,7.524-1.408,10.337-4.222
			c2.814-2.814,4.22-6.239,4.22-10.338v-27.465c0-4.099-1.406-7.524-4.22-10.338c-2.876-2.814-6.301-4.222-10.4-4.222h-1.712
			c-4.099,0-7.34,1.408-9.787,4.222s-3.669,6.239-3.669,10.338v11.683h-27.955v-11.683c0-7.403,1.773-14.192,5.261-20.371
			c3.485-6.178,8.258-11.193,14.253-14.864c5.993-3.671,12.722-5.567,20.125-5.567h5.261c7.401,0,14.19,1.835,20.431,5.567
			c6.239,3.671,11.193,8.625,14.864,14.864c3.669,6.239,5.567,13.031,5.567,20.371v28.566c0,5.444-1.102,10.582-3.365,15.476
			c-2.263,4.833-5.383,8.564-9.482,11.072c4.099,2.509,7.219,6.241,9.482,11.072c2.263,4.833,3.365,10.033,3.365,15.478v46.611
			c0,7.402-1.835,14.192-5.567,20.431c-3.671,6.24-8.625,11.194-14.864,14.864c-6.241,3.671-13.03,5.566-20.431,5.566h-8.748
			c-7.401,0-14.19-1.835-20.432-5.566c-6.239-3.73-11.193-8.624-14.864-14.864c-3.669-6.239-5.505-13.029-5.505-20.431V262.905
			L-381.293,262.905z"/>
		<path fill="#FFFFFF" d="M-202.308,335.759V169.619c0-4.099-1.406-7.524-4.22-10.338c-2.875-2.814-6.302-4.222-10.4-4.222h-5.261
			c-4.097,0-7.523,1.408-10.337,4.222s-4.22,6.239-4.22,10.338v166.139h-27.955V169.619c0-7.403,1.835-14.192,5.505-20.371
			c3.671-6.239,8.625-11.193,14.866-14.864c6.239-3.671,13.029-5.567,20.43-5.567h8.748c7.401,0,14.192,1.835,20.432,5.567
			c6.239,3.671,11.193,8.625,14.864,14.864c3.671,6.239,5.567,13.031,5.567,20.371v166.139H-202.308z"/>
		<path fill="#FFFFFF" d="M-105.535,155.06c-4.099,0-7.524,1.408-10.337,4.222c-2.814,2.814-4.222,6.239-4.222,10.338v40.8h0.613
			c1.957-1.162,4.71-2.263,8.319-3.365c3.608-1.039,7.217-1.589,10.949-1.589h1.775c7.401,0,14.191,1.835,20.432,5.565
			c6.239,3.671,11.193,8.625,14.864,14.866c3.669,6.239,5.565,13.029,5.565,20.369v51.567c0,7.401-1.833,14.19-5.565,20.431
			c-3.671,6.239-8.625,11.194-14.864,14.864c-6.241,3.671-13.031,5.566-20.432,5.566h-8.748c-7.401,0-14.19-1.835-20.431-5.566
			c-6.239-3.67-11.193-8.625-14.864-14.864c-3.669-6.241-5.505-13.03-5.505-20.431V169.619c0-7.403,1.835-14.192,5.505-20.371
			c3.671-6.239,8.625-11.193,14.864-14.864c6.241-3.671,13.03-5.567,20.431-5.567h52.485v26.243H-105.535z M-85.778,246.326
			c0-4.097-1.406-7.524-4.22-10.338s-6.241-4.22-10.338-4.22h-5.2c-4.099,0-7.524,1.406-10.337,4.22
			c-2.814,2.814-4.222,6.241-4.222,10.338v51.567c0,4.098,1.408,7.524,4.222,10.337c2.813,2.813,6.239,4.222,10.337,4.222h5.261
			c4.099,0,7.524-1.408,10.338-4.222s4.222-6.239,4.222-10.337v-51.567H-85.778z"/>
		<path fill="#FFFFFF" d="M33.751,335.759V169.619c0-4.099-1.406-7.524-4.22-10.338c-2.814-2.814-6.302-4.222-10.34-4.222H13.93
			c-4.097,0-7.523,1.408-10.337,4.222s-4.22,6.239-4.22,10.338v166.139h-27.955V169.619c0-7.403,1.835-14.192,5.505-20.371
			c3.671-6.239,8.625-11.193,14.864-14.864c6.241-3.671,13.03-5.567,20.431-5.567h8.748c7.401,0,14.192,1.835,20.432,5.567
			c6.239,3.671,11.193,8.625,14.864,14.864c3.669,6.239,5.567,13.031,5.567,20.371v166.139H33.751z"/>
		<path fill="#FFFFFF" d="M115.964,297.894c0,4.098,1.408,7.524,4.222,10.337c2.814,2.813,6.239,4.222,10.338,4.222h5.261
			c4.097,0,7.523-1.408,10.338-4.222c2.813-2.813,4.22-6.239,4.22-10.337v-61.231h27.955v61.231c0,7.402-1.835,14.192-5.565,20.431
			c-3.671,6.24-8.625,11.194-14.865,14.864c-6.239,3.671-13.029,5.566-20.432,5.566h-8.746c-7.403,0-14.192-1.835-20.432-5.566
			c-6.239-3.73-11.195-8.624-14.864-14.864c-3.671-6.239-5.505-13.029-5.505-20.431v-166.14h27.953v166.14H115.964z"/>
	</g>
	<g>
		<path fill="#FFFFFF" d="M297.531,227.727c-1.331,5.096-2.792,10.261-4.47,15.496c-1.678,5.225-3.347,10.112-5.165,14.79
			c-0.417,0.904-0.765,1.749-0.973,2.652c2.86,0.417,5.513,0.765,7.956,0.974c4.391,0.208,8.374,0.069,11.791-0.487
			s6.635-1.599,9.635-3.139c3-1.539,5.791-3.903,8.443-6.982c1.529-6.834,3.903-11.721,6.973-14.651
			c3.069-2.861,5.652-3.278,7.679-1.182c2.016,2.086,2.791,6.834,2.513,14.303c-0.348,7.4-3.069,17.999-8.165,31.747
			c-3.774,16.608-8.721,31.895-14.8,45.712c-6.069,13.886-12.555,27.494-19.25,40.895c-6.774,13.39-13.331,27.206-19.608,41.371
			c-6.288,14.175-11.453,30.008-15.496,47.52c0,0.706,1.112,0.636,3.347-0.129c2.235-0.774,4.331-1.262,6.347-1.47
			c2.026-0.209,3.08,0.277,3.357,1.47c0.208,1.183-1.679,3.903-5.652,8.155c-1.54,1.539-3.357,3.288-5.304,5.165
			c-2.026,1.888-3.914,3.357-5.791,4.331c-1.887,0.974-3.566,1.252-4.957,0.834c-1.47-0.417-2.513-2.096-3.139-4.956
			c2.017-17.304,6.139-34.051,12.486-50.381c6.347-16.261,13.191-32.66,20.591-49.05c7.39-16.399,14.651-33.217,21.624-50.391
			c6.983-17.164,12.287-35.302,15.774-54.353c-3.973,2.026-7.678,3.486-10.956,4.46c-3.348,0.983-6.695,1.609-10.122,1.817
			c-3.417,0.209-7.042,0.209-10.807,0c-2.861-0.208-5.871-0.417-9.009-0.695c-1.321,2.861-2.294,5.235-3,6.973
			c-3.347,7.122-7.459,13.957-12.486,20.591c-4.957,6.625-10.191,12.556-15.635,17.79c-5.443,5.235-10.748,9.427-15.972,12.635
			c-5.245,3.209-9.566,4.817-13.122,4.817c-6.01,0-10.4-1.539-13.331-4.678c-2.86-3.069-4.678-7.122-5.304-12
			c-0.695-4.887-0.417-10.261,0.695-16.121c1.123-5.86,2.652-11.591,4.679-17.104c2.026-5.503,4.182-10.599,6.486-15.138
			c2.304-4.53,4.47-7.817,6.496-9.833c5.791-6.219,10.599-10.609,14.443-13.331c3.904-2.652,7.251-4.053,10.122-4.192
			c2.851-0.139,5.503,0.626,7.947,2.166c2.443,1.54,4.957,3.417,7.678,5.652c2.652,2.235,5.791,4.331,9.277,6.348
			c1.54,0.914,3.357,1.679,5.304,2.304c0.914-2.444,1.749-5.096,2.652-7.957c1.331-3.347,2.513-6.834,3.635-10.459
			c1.113-3.635,2.017-7.261,2.643-10.822c2.443-9.978,4.4-19.956,6.009-29.934c1.53-9.978,1.877-18.421,0.974-25.26
			c-1.321-10.608-3.765-18.356-7.331-23.1c-3.556-4.743-9-5.234-16.32-1.535c-5.801,3.139-9.565,6.77-11.314,10.957
			c-1.738,4.187-2.722,8.443-2.86,12.63c-0.139,4.187,0.208,7.956,0.983,11.304c0.765,3.348,0.834,5.652,0.139,6.978
			c-1.331,3.069-2.93,4.743-4.817,4.952c-1.887,0.213-3.625-0.134-5.165-1.182c-1.53-0.979-2.861-2.374-3.834-4.187
			c-0.973-1.748-1.261-3.213-0.844-4.326c-0.904-6.213-0.338-12.491,1.679-18.773c2.026-6.278,4.817-11.93,8.443-16.817
			c3.625-4.882,7.887-8.791,12.635-11.791c4.738-3.005,9.486-4.331,14.304-3.978c4.738,0.348,9.277,2.722,13.469,7.117
			c4.182,4.465,7.668,11.512,10.32,21.281c2.444,8.652,3.08,18.635,1.818,29.938C302.766,205.119,300.6,216.423,297.531,227.727z
			 M265.288,265.692c-2.652-1.748-5.235-3.417-7.679-5.026c-2.443-1.54-4.321-2.652-5.652-3.348
			c-4.668-2.234-8.93-2.165-12.833,0.14c-3.914,2.304-7.4,5.999-10.469,10.956c-3.069,5.026-5.652,10.608-7.679,16.956
			c-2.026,6.347-3.208,12.277-3.625,17.929c-0.417,5.652-0.139,10.4,0.974,14.165c1.123,3.774,3.357,5.443,6.635,5.026
			c3.765-0.418,7.887-2.583,12.277-6.348c4.4-3.765,8.93-8.443,13.469-13.956c4.54-5.512,8.791-11.512,12.774-17.929
			c3.06-5.096,5.86-10.122,8.304-14.939C269.688,268.204,267.453,267.013,265.288,265.692z"/>
		<path fill="#FFFFFF" d="M479.029,231.079c-4.471,8.16-8.582,14.587-12.486,19.116c-3.844,4.54-7.678,8.026-11.304,10.47
			c-3.636,2.443-7.191,4.192-10.47,5.165c-3.348,0.974-6.426,2.166-9.287,3.487c-0.417,0-0.695,0.417-0.695,1.331
			c-1.112,2.851-2.791,6.764-5.165,11.652c-2.374,4.877-4.808,9.902-7.46,15.138c-2.652,5.234-5.304,10.191-7.956,14.939
			c-2.652,4.738-5.026,8.234-6.983,10.46c-2.443,2.86-5.443,5.234-8.999,7.121c-3.556,1.888-7.043,3.14-10.47,3.626
			c-3.417,0.566-6.625,0.487-9.625-0.139c-3-0.695-5.235-2.026-6.844-3.974c-2.016-4.679-2.86-9.844-2.652-15.635
			s0.983-11.443,2.304-16.955c1.331-5.514,2.931-10.679,4.818-15.496c1.877-4.738,3.347-8.443,4.46-11.165
			c3.357-9.556,7.331-19.469,12.009-29.928c4.678-10.4,8.999-20.661,13.122-30.778c4.112-10.047,7.459-19.886,10.112-29.446
			c2.861-9.283,4.331-17.865,4.331-25.613c-0.914,4.678-2.652,10.608-5.304,17.934c-2.861,7.331-6.427,15.565-10.608,24.773
			c-4.192,9.213-9,19.121-14.304,29.729L373.936,258.5c-5.096,10.399-10.042,20.73-14.791,30.912
			c-4.748,10.19-8.93,19.607-12.486,28.269c-1.331,1.738-2.304,2.573-2.871,2.295c-0.556-0.209-0.834-1.043-0.834-2.513
			c0-1.46,0.139-3.278,0.487-5.513c0.348-2.226,0.834-4.321,1.54-6.348c7.54-19.468,15.705-38.589,24.634-57.363
			c8.86-18.694,17.929-37.398,27.286-56.028c5.086-9.769,9.347-20.586,12.764-32.451c3.417-11.86,6.913-22.677,10.469-32.446
			c1.738-5.096,3.626-7.674,5.513-7.674c1.888,0,3.418,1.744,4.669,5.161c1.192,3.422,1.888,8.095,2.026,13.956
			c0.139,5.86-0.695,12.143-2.514,18.773c-3.973,15.069-9.068,30.003-15.276,44.729c-6.208,14.721-12.079,29.725-17.592,45.076
			c3.357-3.069,7.331-5.235,12.148-6.486c4.738-1.192,9.277-1.47,13.608-0.626c4.32,0.765,7.956,2.722,10.816,5.791
			c2.861,3.069,4.182,7.321,3.974,12.625c7.539-1.529,15.635-7.39,24.286-17.442c8.652-10.117,16.608-23.447,23.93-40.055
			c2.443-4.882,4.956-10.539,7.469-16.956c2.514-6.422,4.957-13.052,7.331-19.956c2.305-6.839,4.529-13.539,6.626-19.96
			c2.096-6.417,4.053-12.074,5.791-16.956c1.748-5.096,3.635-7.674,5.512-7.674c1.888,0,3.428,1.744,4.68,5.161
			c1.182,3.422,1.887,8.095,2.025,13.956c0.139,5.86-0.705,12.143-2.513,18.773c-3.348,12.838-7.608,25.747-12.844,38.729
			c-5.234,12.978-10.33,25.955-15.276,38.868c-5.027,12.982-9.496,26.025-13.47,39.216c-3.983,13.191-6.427,26.442-7.331,39.703
			c-0.417,6.635,1.053,10.816,4.471,12.496c3.416,1.668,7.32,1.738,11.79,0.139c4.47-1.609,8.513-4.4,12.277-8.513
			c3.774-4.122,5.651-8.582,5.651-13.47c0-1.539-0.277-3-0.834-4.33c-0.557-1.321-0.973-2.513-1.182-3.486
			c-0.209-0.975,0.139-2.027,0.973-3c0.904-0.974,2.861-2.027,6-3.139c3.765-1.54,6.427-1.957,7.957-1.192
			c1.539,0.774,2.373,2.165,2.513,4.191s-0.208,4.391-0.974,7.112c-0.774,2.791-1.609,5.374-2.514,7.817
			c-2.025,2.443-3.635,4.4-5.025,5.791c-1.331,1.47-2.652,2.791-3.983,4.191c-1.321,1.321-2.791,2.583-4.321,3.835
			c-1.539,1.261-3.625,2.582-6.347,4.191c-2.86,1.738-6.079,3.348-9.636,4.668c-3.555,1.332-7.042,2.166-10.459,2.514
			c-3.427,0.348-6.635,0.139-9.496-0.626c-2.86-0.765-5.096-2.165-6.625-4.182c-2.026-4.679-2.861-9.844-2.652-15.635
			s0.974-11.443,2.305-16.956c1.32-5.513,2.92-10.678,4.808-15.495c1.888-4.738,3.356-8.443,4.47-11.165
			c3.557-10.4,7.817-21.843,12.773-34.259c5.017-12.421,9.695-24.634,14.096-36.569c4.46-11.93,8.154-22.955,11.294-32.933
			c3.079-9.978,4.679-17.656,4.679-22.96c-1.113,0.209-2.652,3.074-4.679,8.448c-2.017,5.438-4.53,12.347-7.669,20.79
			s-6.705,17.795-10.816,28.125C488.724,211.327,484.124,221.311,479.029,231.079z M418.178,284.952
			c3.069-6.427,5.165-12.218,6.347-17.313c-5.791-1.113-10.678-2.503-14.791-4.321c-4.112-1.748-6.695-4.192-7.817-7.331
			c-3.765,2.652-7.668,6.566-11.651,11.652c-2.443,7.748-4.47,15.565-6.139,23.452c-1.679,7.887-2.722,15.703-3.139,23.441
			c-0.417,6.636,0.486,10.33,2.86,10.956c2.305,0.706,5.374-0.695,9.139-4.182c3.774-3.417,7.887-8.443,12.496-14.939
			C409.944,299.881,414.205,292.69,418.178,284.952z M424.178,256.692c-1.112-2.871-3.069-4.678-5.791-5.513
			c-2.791-0.774-6.069-0.357-9.834,1.183c2.017,0.903,4.321,1.748,6.973,2.513C418.178,255.639,421.109,256.265,424.178,256.692z"/>
		<path fill="#FFFFFF" d="M596.12,303.933c2.443-5.096,4.678-10.469,6.635-16.121c2.017-5.652,3.557-11.096,4.668-16.261
			c1.123-5.234,1.68-9.913,1.68-14.165c0-4.192-0.904-7.4-2.652-9.496c-1.818-2.086-4.539-2.861-8.305-2.294
			c-3.773,0.556-8.721,2.93-14.939,7.112c-4.668,3.069-8.651,6.844-11.93,11.165c-3.347,4.331-6.277,9.069-8.79,14.165
			s-4.748,10.4-6.626,15.982c-1.887,5.512-3.496,10.956-4.817,16.33c-0.417,1.321-0.556,2.86-0.348,4.668l0.695,4.957
			c0.209,1.54,0.348,3.139,0.487,4.679c0.139,1.54-0.14,2.791-0.835,3.626c-1.112,2.025-2.165,3.427-3.139,4.33
			c-0.974,0.904-3.278,0.904-6.834,0c-1.748,0.209-3.497-0.139-5.175-1.191c-1.669-0.974-2.364-2.514-2.156-4.46
			c0.209-7.331,2.305-15.982,6.139-25.956c3.904-9.982,8.722-19.617,14.443-28.964c5.791-9.278,12.009-17.303,18.773-24.078
			c6.764-6.765,13.121-10.678,19.121-11.791c8.652-1.529,14.999-0.417,19.121,3.348c4.112,3.774,6.557,9.009,7.32,15.635
			c0.775,6.625,0.348,14.165-1.32,22.469c-1.679,8.304-3.834,16.261-6.486,23.799c-5.305,10.599-7.887,17.303-7.679,19.955
			c0.209,2.652,2.165,2.931,5.791,0.835c3.626-2.097,8.374-5.652,14.095-10.608c5.791-4.957,11.514-9.834,17.305-14.443
			c7.33-7.112,14.025-14.79,20.094-23.094c6.079-8.304,11.025-15.913,14.801-22.747c1.529-6.844,3.625-11.801,6.139-14.801
			c2.582-3,4.678-3.556,6.348-1.668c1.678,1.877,2.443,6.625,2.304,14.165c-0.14,7.529-2.026,18.416-5.791,32.581
			c-4.192,16.191-9.427,31.13-15.635,44.877c-6.208,13.748-12.556,27.355-19.121,40.885c-6.556,13.539-12.903,27.495-19.111,41.868
			c-6.218,14.383-11.304,30.355-15.287,47.878c0,0.695,1.122,0.625,3.348-0.14c2.235-0.774,4.331-1.262,6.356-1.47
			c2.018-0.209,3.14,0.277,3.348,1.47c0.209,1.183-1.678,3.903-5.651,8.155c-1.54,1.539-3.357,3.288-5.304,5.175
			c-2.027,1.878-3.914,3.348-5.791,4.321c-1.888,0.974-3.566,1.262-5.027,0.834c-1.47-0.417-2.513-2.086-3.139-4.946
			c2.017-17.313,6.139-34.061,12.486-50.391c6.357-16.261,13.191-32.65,20.592-49.05c7.39-16.399,14.65-33.217,21.634-50.381
			c6.974-17.164,12.208-35.312,15.764-54.363c-1.112,4.47-3.694,9.486-7.817,15.138c-4.112,5.652-9.068,11.384-14.93,17.104
			c-5.859,5.791-12.068,11.234-18.635,16.459c-6.555,5.235-12.624,9.427-18.276,12.636c-5.651,3.208-10.399,5.304-14.304,6.139
			c-3.914,0.913-6.148-0.209-6.844-3.348c-1.529-2.235-2.305-4.609-2.305-7.122c0-2.503,0.348-5.017,0.984-7.46
			c0.695-2.443,1.459-4.679,2.502-6.844C594.938,306.645,595.633,304.976,596.12,303.933z"/>
		<path fill="#FFFFFF" d="M731.706,258.361c0,2.026,1.748,1.888,5.305-0.348c3.557-2.234,7.748-4.887,12.635-7.956
			c4.877-3.069,9.834-5.791,14.791-8.165c4.956-2.374,8.79-2.861,11.442-1.46c1.738,0.695,2.999,3.069,3.626,7.32
			c0.625,4.192,0.625,9.496-0.14,15.774c-0.765,6.347-2.235,13.4-4.331,21.287c-2.086,7.877-4.946,15.763-8.512,23.79
			c-2.861,6.218-3.487,9.704-1.809,10.469c1.679,0.766,4.529-0.139,8.652-2.791c4.111-2.652,8.999-6.625,14.65-11.999
			c5.652-5.304,11.166-11.165,16.47-17.661c5.304-6.417,9.913-12.833,13.817-19.26c3.913-6.417,6.277-11.93,7.191-16.608
			c1.529-6.834,3.834-11.721,6.973-14.651c3.069-2.86,5.652-3.278,7.678-1.182c2.027,2.086,2.861,6.834,2.514,14.304
			c-0.348,7.39-3.069,17.999-8.165,31.747c-3.774,16.608-8.722,31.894-14.79,45.711c-6.069,13.816-12.566,27.494-19.261,40.885
			c-6.774,13.399-13.33,27.217-19.608,41.381c-6.287,14.165-11.442,30.008-15.426,47.52c0,0.706,1.123,0.637,3.348-0.139
			c2.234-0.765,4.331-1.252,6.357-1.46c2.016-0.209,3.068,0.278,3.348,1.46c0.208,1.192-1.68,3.914-5.652,8.165
			c-1.539,1.54-3.357,3.288-5.305,5.165c-2.025,1.888-3.913,3.348-5.791,4.331c-1.887,0.974-3.556,1.252-5.025,0.835
			c-1.461-0.418-2.514-2.097-3.139-4.957c2.016-17.304,6.139-34.051,12.485-50.381c6.356-16.261,13.19-32.66,20.591-49.06
			c7.391-16.39,14.582-33.137,21.416-50.172c6.427-15.485,11.305-31.815,14.662-48.84c-1.123,4.46-3.209,9.068-6.357,13.956
			c-4.461,6.833-9.625,13.399-15.625,19.607s-12.287,11.722-18.773,16.47c-6.557,4.748-12.348,8.095-17.443,9.973
			c-5.096,1.887-8.859,1.817-11.303-0.14c-2.444-1.946-2.514-6.625-0.348-13.956c1.32-4.182,3.208-9.416,5.651-15.625
			c2.434-6.208,4.669-12.425,6.834-18.633c2.096-6.208,3.695-12.069,4.679-17.651c0.973-5.513,0.695-9.982-0.845-13.33
			c-3.139-1.331-7.32-0.278-12.625,3.139c-5.304,3.417-10.886,8.513-16.816,15.277c-5.86,6.774-11.442,14.8-16.608,24.078
			c-5.234,9.277-9.287,19.05-12.139,29.242c-1.122,3.766-2.801,6.834-5.025,9.278c-2.235,2.443-5.514,2.304-9.982-0.348
			c-0.695-1.112-0.695-2.861-0.14-5.305s1.331-5.096,2.305-7.956c0.974-2.861,2.026-5.652,2.999-8.305
			c0.975-2.652,1.738-4.748,2.166-6.347c5.513-13.331,11.096-27.078,16.608-41.381s10.599-28.538,15.276-42.707
			c4.68-14.165,8.514-27.912,11.652-41.242c3.139-13.325,5.234-25.469,6.357-36.563c-0.418-8.86,0.556-14.582,2.999-17.095
			c2.444-2.513,5.026-3.069,7.669-1.465c2.234,1.326,3.774,3.069,4.678,5.305c0.904,2.229,1.471,4.673,1.68,7.325
			c-0.418,7.957-2.305,17.443-5.514,28.404c-3.208,10.951-6.844,22.116-10.956,33.425c-4.112,11.299-8.165,22.186-12.277,32.725
			C737.08,242.1,733.942,251.031,731.706,258.361z"/>
		<path fill="#FFFFFF" d="M1047.261,295.55c3.07-7.529,4.738-13.886,5.017-19.111c0.208-5.235-0.417-11.374-2.017-18.426
			c-0.209-1.112-0.705-2.582-1.331-4.47c-0.695-1.877-1.669-3.556-2.999-4.946c-1.332-1.47-2.932-2.235-4.818-2.514
			c-1.877-0.208-4.252,0.765-7.111,3c-2.444,1.738-4.888,2.861-7.331,3.139c-2.444,0.278-4.46,0.07-6.139-0.834
			c-1.679-0.914-2.722-2.166-3.14-3.844c-0.416-1.668,0.209-3.625,2.027-5.791c2.225-2.861,5.582-4.748,10.111-5.652
			c4.539-0.904,9.208-0.695,13.956,0.487c4.748,1.192,9.069,3.705,12.982,7.47c3.835,3.765,6.278,8.86,7.112,15.277
			c0.705,4.679,0.705,9.565,0.209,14.661c-0.557,5.086-1.669,10.112-3.348,14.93c-1.669,4.887-3.695,9.496-6.139,13.816
			c-2.443,4.331-5.096,8.026-7.957,11.165c-4.469,4.679-8.512,8.513-12.277,11.651c-3.773,3.07-7.469,5.305-11.164,6.497
			c-3.695,1.251-7.539,1.529-11.662,0.834c-4.111-0.695-8.721-2.513-13.807-5.651c-2.443-1.332-4.4-3.418-5.801-6.348
			c-1.461-2.861-2.504-6.069-3.139-9.635c-5.791,1.122-11.165,0.417-16.261-2.166c-5.086-2.503-10.112-6.069-14.93-10.459
			l-2.304,4.668c-3.348,6.01-6.904,11.373-10.818,16.121c-3.902,4.748-8.164,8.443-12.764,10.957
			c-4.678,2.582-9.565,3.834-14.79,3.834c-5.235,0-10.608-1.529-16.122-4.669c-4.887-3.983-8.303-8.442-10.33-13.33
			c-2.025-4.887-2.86-9.913-2.652-15.138c0.209-5.235,1.54-10.469,3.845-15.773c2.294-5.304,5.364-10.609,9.138-15.982
			c4.669-6.208,9.278-10.042,13.817-11.652c4.53-1.539,9.069-1.539,13.47,0c4.391,1.54,8.791,4.252,13.111,8.165
			c4.331,3.904,8.582,7.957,12.844,12.139c3.069-11.096,4.32-22.747,3.625-34.885c-0.695-12.217-4.32-23.73-10.955-34.612
			c-3.975-6.422-6.974-12.496-9-18.287c-9.982,17.1-21.635,33.778-34.885,50.038c-13.33,16.32-27.078,32.094-41.242,47.381
			c-1.332,1.321-2.583,1.877-3.845,1.669c-1.182-0.208-2.096-0.904-2.651-2.017c-0.557-1.122-0.695-2.513-0.487-4.191
			s1.122-3.139,2.652-4.47c17.512-15.486,32.173-31.538,44.033-48.007c11.86-16.539,22.886-33.634,33.077-51.359
			c-2.652-13.742,0.557-26.517,9.625-38.237c2.235-2.861,4.471-4.465,6.636-4.674c2.226-0.213,3.974,0.557,5.304,2.3
			c1.321,1.743,1.947,4.256,1.809,7.465c-0.14,3.213-1.461,6.7-4.182,10.47c-2.235,5.999-4.54,11.512-6.983,16.607
			c0,6.422,0.974,12.352,2.999,17.795c2.027,5.443,4.54,10.464,7.679,15.138c7.748,11.518,12.069,24.147,12.983,37.895
			c0.903,13.748-1.54,28.121-7.331,43.189c4.887,4.887,9.485,8.592,13.817,11.164c4.33,2.583,8.373,2.583,12.138,0.149
			c0.417-2.86,1.4-5.234,2.86-7.122c1.471-1.887,3.288-3.069,5.514-3.486c3.565-0.417,6.078-0.705,7.678-0.834
			c1.539-0.149,3,1.043,4.331,3.487c0.695,2.016,0.695,4.182,0.139,6.625c-0.556,2.443-1.192,4.886-1.817,7.331
			c-0.695,2.443-1.113,4.946-1.321,7.46c-0.208,2.582,0.417,5.165,2.017,7.816c3.566,2.444,7.191,3.348,10.816,2.652
			c3.705-0.695,7.192-2.305,10.679-4.808c3.417-2.513,6.694-5.801,9.833-9.635C1042.096,304.212,1044.818,300.02,1047.261,295.55z
			 M912.926,273.995c-5.096,5.305-8.86,10.887-11.304,16.608c-2.443,5.791-3.486,11.094-3.139,15.982
			c0.348,4.877,2.096,9.069,5.304,12.485c3.208,3.418,7.956,5.374,14.165,5.791c5.305-0.903,10.816-4.459,16.607-10.608
			c5.791-6.208,10.609-14.095,14.652-23.581c-3.348-3.347-6.626-6.635-9.973-9.844c-3.348-3.208-6.497-5.791-9.496-7.668
			c-3-1.888-5.861-2.871-8.652-3.01C918.3,270.012,915.578,271.344,912.926,273.995z"/>
	</g>
</g>
</svg>
