<?xml version="1.0" encoding="utf-8"?>
<!-- Generator: Adobe Illustrator 16.2.0, SVG Export Plug-In . SVG Version: 6.00 Build 0)  -->
<!DOCTYPE svg PUBLIC "-//W3C//DTD SVG 1.1//EN" "http://www.w3.org/Graphics/SVG/1.1/DTD/svg11.dtd">
<svg version="1.1" id="Layer_1" xmlns="http://www.w3.org/2000/svg" xmlns:xlink="http://www.w3.org/1999/xlink" x="0px" y="0px"
	 width="1204px" height="362.667px" viewBox="-82.555 153.14 1204 362.667" enable-background="new -82.555 153.14 1204 362.667"
	 xml:space="preserve">
<g>
	<g>
		<path fill="#FFFFFF" d="M-70.082,198.486c0-11.437,3.566-21.119,10.758-28.99c7.19-7.869,16.305-11.775,27.403-11.775h5.549
			c11.097,0,19.986,3.906,26.667,11.664c6.682,7.755,10.079,17.494,10.079,29.158c0,13.023-4.87,25.139-14.551,36.406
			c-9.738,11.268-22.365,20.666-37.878,28.253v13.701h0.565c1.925-1.189,4.53-2.264,7.7-3.341c3.228-1.075,6.455-1.585,9.738-1.585
			h2.322c11.833,0,21.515,3.51,28.99,10.475c7.473,7.021,11.21,17.099,11.21,30.291v51.863H-9.5v-51.863
			c0-4.076-1.416-7.53-4.247-10.36c-2.831-2.831-6.286-4.247-10.361-4.247h-3.455c-4.076,0-7.53,1.416-10.361,4.247
			c-2.83,2.83-4.246,6.284-4.246,10.36v51.863h-27.913V198.486z M-41.546,233.76c5.605-2.718,11.21-7.305,16.759-13.702
			c5.547-6.397,8.323-13.589,8.323-21.571c0-4.87-1.02-8.494-3.058-10.927c-2.037-2.435-5.322-3.624-9.794-3.624
			c-3.906,0-7.021,1.358-9.342,4.076c-2.322,2.718-3.511,6.228-3.511,10.475v35.273H-41.546z"/>
		<path fill="#FFFFFF" d="M47.061,291.738h27.97v34.99c0,4.077,1.416,7.53,4.247,10.361c2.831,2.831,6.284,4.247,10.361,4.247h5.265
			c4.078,0,7.53-1.416,10.362-4.247c2.831-2.831,4.247-6.284,4.247-10.361v-45.464c0-4.078-1.416-7.53-4.247-10.361
			c-2.832-2.832-6.284-4.247-10.362-4.247h-7.586V240.44h7.586c4.078,0,7.53-1.416,10.362-4.247c2.831-2.83,4.247-6.284,4.247-10.36
			v-27.347c0-4.077-1.416-7.53-4.247-10.361c-2.832-2.832-6.284-4.247-10.362-4.247H93.15c-4.077,0-7.361,1.416-9.738,4.247
			c-2.435,2.831-3.624,6.284-3.624,10.361v11.664H51.817v-11.664c0-7.361,1.756-14.155,5.266-20.383
			c3.511-6.228,8.266-11.154,14.268-14.891c6.001-3.68,12.739-5.549,20.1-5.549h5.265c7.361,0,14.155,1.869,20.383,5.549
			s11.154,8.663,14.891,14.891c3.68,6.228,5.549,13.022,5.549,20.383v28.536c0,5.436-1.133,10.587-3.341,15.457
			c-2.208,4.869-5.378,8.55-9.456,11.097c4.077,2.548,7.248,6.228,9.456,11.098c2.208,4.869,3.341,10.021,3.341,15.457v46.597
			c0,7.36-1.869,14.212-5.549,20.384c-3.68,6.229-8.663,11.154-14.891,14.89c-6.228,3.682-13.022,5.549-20.383,5.549h-8.719
			c-7.361,0-14.154-1.867-20.382-5.549c-6.228-3.68-11.154-8.661-14.891-14.89c-3.68-6.228-5.549-13.023-5.549-20.384v-34.99H47.061
			z"/>
		<path fill="#FFFFFF" d="M219.127,188.125c-2.831-2.832-6.286-4.247-10.361-4.247h-3.793c-4.077,0-7.531,1.416-10.361,4.247
			c-2.831,2.831-4.247,6.284-4.247,10.361v11.664h-25.366v-11.664c0-7.361,1.87-14.155,5.549-20.383
			c3.681-6.228,8.663-11.154,14.891-14.891c6.228-3.68,13.021-5.549,20.382-5.549h4.643c7.361,0,14.155,1.869,20.383,5.549
			s11.154,8.663,14.833,14.891c3.681,6.228,5.549,13.022,5.549,20.383v128.241c0,7.36-1.868,14.212-5.549,20.384
			c-3.68,6.229-8.662,11.154-14.833,14.89c-6.228,3.682-13.022,5.549-20.383,5.549h-6.059c-7.361,0-14.154-1.867-20.382-5.549
			c-6.229-3.68-11.154-8.661-14.891-14.89c-3.68-6.228-5.548-13.023-5.548-20.384v-47.786h25.365v47.786
			c0,4.077,1.416,7.53,4.247,10.361s6.284,4.247,10.361,4.247h5.265c4.077,0,7.53-1.416,10.361-4.247s4.247-6.284,4.247-10.361
			V198.486C223.372,194.409,221.957,190.956,219.127,188.125z"/>
		<path fill="#FFFFFF" d="M320.078,183.935c-4.077,0-7.53,1.416-10.361,4.245c-2.831,2.832-4.247,6.286-4.247,10.362v40.823h0.565
			c1.925-1.189,4.701-2.266,8.324-3.341c3.566-1.076,7.246-1.585,10.927-1.585h1.754c7.361,0,14.155,1.868,20.383,5.549
			c6.228,3.68,11.154,8.662,14.891,14.89c3.681,6.228,5.549,13.023,5.549,20.384v51.579c0,7.361-1.868,14.212-5.549,20.383
			c-3.68,6.228-8.663,11.154-14.891,14.891c-6.228,3.682-13.022,5.55-20.383,5.55h-8.719c-7.361,0-14.155-1.868-20.383-5.55
			c-6.228-3.68-11.154-8.663-14.891-14.891c-3.68-6.229-5.548-13.021-5.548-20.383V198.486c0-7.361,1.868-14.155,5.548-20.383
			c3.681-6.228,8.663-11.154,14.891-14.891c6.228-3.68,13.022-5.549,20.383-5.549h52.429v26.214h-50.673V183.935z M339.894,275.148
			c0-4.077-1.416-7.53-4.246-10.361c-2.831-2.832-6.285-4.247-10.361-4.247h-5.266c-4.076,0-7.53,1.416-10.361,4.247
			c-2.83,2.831-4.246,6.284-4.246,10.361v51.579c0,4.077,1.416,7.53,4.246,10.361c2.831,2.831,6.285,4.247,10.361,4.247h5.266
			c4.076,0,7.53-1.416,10.361-4.247c2.83-2.831,4.246-6.284,4.246-10.361V275.148z"/>
		<path fill="#FFFFFF" d="M424.992,326.727c0,4.077,1.415,7.53,4.246,10.361s6.284,4.247,10.361,4.247h5.266
			c4.077,0,7.531-1.416,10.361-4.247c2.831-2.831,4.246-6.284,4.246-10.361v-61.206h27.97v61.206c0,7.36-1.868,14.212-5.548,20.384
			c-3.682,6.229-8.663,11.154-14.892,14.89c-6.228,3.682-13.021,5.549-20.382,5.549h-8.72c-7.36,0-14.154-1.867-20.382-5.549
			c-6.228-3.68-11.154-8.661-14.891-14.89c-3.68-6.228-5.549-13.023-5.549-20.384V160.608h27.97v166.119H424.992z"/>
	</g>
	<g>
		<path fill="#FFFFFF" d="M545.605,234.206c1.554,2.46,2.459,6.214,2.654,11.328c0.193,5.112-0.065,9.644-0.842,13.657
			c-0.777,4.012-2.136,6.277-4.013,6.86c-1.878,0.583-3.949-2.588-6.148-9.514c-6.021-17.541-8.415-32.493-7.315-44.79
			c1.102-12.298,4.078-21.813,8.804-28.48c4.789-6.667,10.484-10.356,17.151-11.132c6.666-0.776,12.688,1.748,17.995,7.507
			c4.465,4.661,8.153,8.803,11.133,12.493c2.977,3.689,5.695,6.667,8.025,8.996c2.329,2.331,4.53,4.013,6.667,4.985
			c2.136,0.971,4.596,1.359,7.508,1.165c4.854-0.906,9.127-2.395,12.687-4.531c3.56-2.135,6.666-4.466,9.32-7.184
			c2.653-2.654,5.049-5.438,7.184-8.349c2.138-2.913,4.144-5.697,6.148-8.351c2.914-3.754,4.272-3.69,4.143,0.195
			c-0.128,3.883-1.163,10.161-3.17,18.835c-2.007,8.672-4.79,18.77-8.35,30.292c-3.561,11.585-7.249,23.042-11.003,34.498
			c-3.756,11.458-7.444,22.072-11.005,31.845l-1.358,3.69c2.912,0.452,5.631,0.775,8.35,0.97c4.466,0.195,8.35,0.065,11.844-0.518
			c3.431-0.518,6.667-1.617,9.645-3.17c2.978-1.555,5.826-3.885,8.48-6.992c1.553-6.86,3.884-11.779,6.989-14.627
			c3.107-2.913,5.632-3.301,7.638-1.166c2.007,2.136,2.848,6.861,2.524,14.305c-0.324,7.444-3.042,18.059-8.155,31.846
			c-3.754,16.634-8.738,31.911-14.822,45.825c-6.084,13.853-12.557,27.51-19.353,40.973c-6.797,13.462-13.334,27.248-19.677,41.488
			c-6.345,14.24-11.457,30.098-15.47,47.639c0,0.647,1.1,0.582,3.301-0.194s4.336-1.296,6.343-1.489
			c2.008-0.193,3.107,0.26,3.366,1.489c0.194,1.229-1.684,3.948-5.696,8.155c-1.553,1.555-3.301,3.301-5.308,5.178
			c-2.006,1.879-3.948,3.367-5.825,4.337c-1.877,0.972-3.56,1.295-4.983,0.842s-2.524-2.135-3.172-4.984
			c2.008-17.347,6.149-34.175,12.492-50.485s13.205-32.686,20.648-49.126c7.443-16.441,14.627-33.271,21.683-50.488
			c6.99-17.217,12.298-35.339,15.858-54.435c-4.014,2.008-7.639,3.497-11.003,4.467c-3.366,0.971-6.733,1.618-10.163,1.812
			c-3.431,0.195-7.057,0.195-10.81,0c-2.654-0.193-5.695-0.453-8.997-0.646c-1.1,2.654-2.136,4.984-2.979,6.989
			c-3.363,7.121-7.507,13.982-12.491,20.647c-4.982,6.668-10.227,12.624-15.662,17.802c-5.438,5.242-10.746,9.448-15.988,12.621
			c-5.242,3.237-9.58,4.855-13.14,4.855c-6.019,0-10.42-1.554-13.334-4.661c-2.911-3.107-4.659-7.12-5.307-11.975
			c-0.647-4.854-0.452-10.291,0.647-16.182s2.654-11.586,4.659-17.152c2.008-5.565,4.143-10.614,6.473-15.146
			c2.332-4.529,4.467-7.832,6.475-9.838c5.759-6.213,10.614-10.68,14.496-13.334c3.886-2.653,7.251-4.076,10.163-4.142
			c2.914-0.13,5.565,0.648,8.026,2.2c2.46,1.553,4.984,3.431,7.638,5.632s5.76,4.336,9.32,6.343c1.554,0.906,3.301,1.684,5.308,2.33
			c0.905-2.007,1.747-4.207,2.653-6.668c2.654-6.212,5.308-13.009,7.962-20.517c2.653-7.443,5.242-14.952,7.637-22.459
			c2.461-7.573,4.466-14.24,6.02-20.001c1.554-5.761,2.396-10.227,2.525-13.333s-0.842-3.883-2.848-2.33
			c-2.913,2.2-5.374,3.819-7.509,4.854c-2.135,0.972-4.077,1.619-5.825,1.813c-1.747,0.195-3.431,0.259-4.984,0.195
			c-1.553-0.129-2.978-0.259-4.336-0.518c-2.201-0.194-4.66-1.036-7.313-2.524c-2.654-1.425-5.308-3.237-8.026-5.308
			c-2.653-2.135-5.244-4.466-7.638-7.184c-2.461-2.654-4.53-5.308-6.344-7.961c-3.561-5.566-7.508-8.802-11.846-9.838
			c-4.336-0.972-7.702-0.972-10.16,0.194c-3.367,1.812-5.698,5.114-6.991,9.967c-1.358,4.855-2.137,10.097-2.33,15.664
			c-0.193,5.566,0.064,10.68,0.842,15.34C544.246,230.259,544.956,233.106,545.605,234.206z M590.589,303.205
			c-2.654-1.748-5.242-3.433-7.638-4.984c-2.459-1.555-4.337-2.653-5.696-3.302c-4.66-2.2-8.932-2.2-12.814,0.194
			c-3.884,2.331-7.379,6.021-10.486,11.004s-5.631,10.68-7.638,17.023c-2.007,6.343-3.235,12.297-3.688,17.992
			c-0.453,5.697-0.13,10.356,0.97,14.176c1.101,3.753,3.303,5.438,6.667,4.985c3.755-0.453,7.896-2.525,12.297-6.345
			c4.467-3.753,8.933-8.414,13.464-13.981c4.53-5.565,8.803-11.52,12.815-17.993c3.106-5.112,5.891-10.097,8.351-15.016
			C595.056,305.728,592.854,304.498,590.589,303.205z"/>
		<path fill="#FFFFFF" d="M813.115,333.173c3.107-7.573,4.791-13.916,4.984-19.16c0.26-5.242-0.452-11.391-2.007-18.51
			c-0.257-1.103-0.646-2.591-1.358-4.531c-0.647-1.879-1.683-3.561-2.978-4.985c-1.359-1.423-2.912-2.266-4.854-2.524
			c-1.876-0.193-4.271,0.777-7.185,2.979c-2.46,1.812-4.919,2.847-7.313,3.17c-2.46,0.324-4.531,0.064-6.15-0.842
			c-1.682-0.905-2.717-2.135-3.17-3.818c-0.453-1.683,0.193-3.624,2.006-5.825c2.2-2.912,5.631-4.789,10.162-5.696
			c4.53-0.905,9.191-0.712,13.981,0.519c4.788,1.23,9.126,3.688,13.01,7.509c3.883,3.753,6.277,8.867,7.184,15.339
			c0.647,4.661,0.712,9.58,0.194,14.629c-0.582,5.112-1.684,10.097-3.301,15.016c-1.684,4.854-3.754,9.515-6.148,13.853
			c-2.461,4.336-5.114,8.025-8.026,11.133c-4.466,4.659-8.738,8.802-12.816,12.491c-4.077,3.689-8.155,6.214-12.169,7.639
			c-4.012,1.423-7.96,1.746-11.845,0.841c-3.883-0.906-7.96-3.431-12.168-7.637c-1.746-1.749-3.042-3.69-3.818-5.827
			c-0.777-2.135-1.295-4.399-1.488-6.795c-4.661,5.307-9.45,9.579-14.306,12.687c-2.911,1.747-6.86,3.3-11.975,4.66
			c-5.112,1.359-10.227,2.136-15.339,2.524c-5.113,0.323-9.838,0.13-14.176-0.648c-4.336-0.775-7.248-2.136-8.866-4.143
			c-2.007-4.659-2.913-9.902-2.654-15.663c0.193-5.761,0.971-11.457,2.331-17.022c1.359-5.567,2.911-10.745,4.854-15.471
			c1.877-4.789,3.365-8.479,4.531-11.133c3.364-9.579,7.313-19.546,11.975-29.969c4.66-10.419,9.063-20.71,13.139-30.808
			c4.078-10.097,7.509-19.937,10.162-29.515c2.912-9.32,4.337-17.865,4.337-25.631c-0.906,4.659-2.654,10.68-5.372,17.993
			c-2.914,7.314-6.409,15.599-10.68,24.79c-4.208,9.191-8.998,19.159-14.306,29.839l-15.663,31.652
			c-5.114,10.42-10.033,20.776-14.821,31.004c-4.791,10.226-8.934,19.676-12.492,28.285c-1.36,1.812-2.267,2.523-2.849,2.33
			c-0.583-0.195-0.841-1.035-0.841-2.525c0-1.424,0.194-3.301,0.518-5.502s0.842-4.336,1.488-6.343
			c7.572-19.547,15.794-38.707,24.66-57.477c8.867-18.771,17.994-37.477,27.314-56.116c5.114-9.774,9.386-20.583,12.816-32.492
			c3.431-11.911,6.926-22.72,10.485-32.494c1.746-5.112,3.625-7.637,5.502-7.637c1.876,0,3.431,1.748,4.659,5.178
			c1.229,3.431,1.878,8.09,2.008,13.981c0.128,5.89-0.713,12.168-2.524,18.835c-3.366,12.881-7.639,25.825-12.817,38.835
			c-5.242,13.011-10.356,25.956-15.338,38.966c-4.985,13.009-9.515,26.084-13.464,39.289c-4.014,13.203-6.474,26.472-7.313,39.806
			c-0.453,4.466,0.646,7.573,3.364,9.32c2.654,1.812,6.02,2.46,10.162,2.007c4.079-0.454,8.609-1.684,13.528-3.818
			c4.854-2.138,9.45-4.919,13.656-8.479c4.209-3.562,7.769-7.573,10.68-11.974c2.914-4.467,4.402-9.128,4.661-13.982
			c0-1.553-0.259-2.977-0.842-4.337c-0.582-1.358-0.905-2.523-0.971-3.493c-0.128-0.973,0.195-2.008,0.971-2.979
			c0.776-0.97,2.719-2.069,5.825-3.171c3.561-1.359,6.021-1.683,7.314-0.971c1.36,0.646,2.007,2.007,2.007,4.014
			c0,2.005-0.518,4.336-1.488,6.989c-0.973,2.654-1.942,5.242-2.849,7.638c-0.647,5.761-0.905,11.133-0.647,16.182
			c0.195,4.984,1.424,9.192,3.689,12.493c3.56,2.459,7.249,3.364,11.003,2.654c3.755-0.648,7.509-2.268,11.198-4.855
			c3.689-2.524,7.184-5.761,10.486-9.645C807.808,341.781,810.722,337.638,813.115,333.173z"/>
		<path fill="#FFFFFF" d="M972.406,288.51c1.554-6.86,3.884-11.779,6.99-14.627c3.106-2.913,5.696-3.301,7.639-1.166
			c2.005,2.136,2.847,6.861,2.523,14.305c-0.323,7.444-3.042,18.059-8.155,31.846c-3.753,16.634-8.738,31.911-14.822,45.825
			c-6.084,13.853-12.557,27.51-19.288,40.973c-6.797,13.462-13.334,27.248-19.677,41.488s-11.52,30.098-15.469,47.639
			c0,0.647,1.101,0.582,3.365-0.194c2.201-0.776,4.336-1.296,6.345-1.489c2.005-0.193,3.104,0.26,3.363,1.489
			c0.26,1.229-1.682,3.948-5.695,8.155c-1.554,1.555-3.3,3.301-5.308,5.178c-2.007,1.879-3.949,3.367-5.824,4.337
			c-1.878,0.972-3.561,1.295-4.985,0.842c-1.423-0.453-2.523-2.135-3.171-4.984c2.006-17.347,6.148-34.175,12.492-50.485
			s13.204-32.686,20.647-49.126c7.442-16.441,14.692-33.271,21.683-50.488s12.298-35.339,15.794-54.435v-2.33
			c-2.008,1.36-4.725,2.46-8.155,3.302c-3.43,0.906-7.313,1.554-11.651,2.007c-4.337,0.452-8.996,0.712-13.981,0.842
			c-4.984,0.129-9.837-0.065-14.498-0.519c-0.453,0.453-0.646,0.907-0.646,1.36c-1.102,2.912-2.848,6.794-5.178,11.649
			c-2.331,4.854-4.855,9.968-7.51,15.146c-2.653,5.244-5.372,10.227-8.025,15.018c-2.654,4.79-4.983,8.285-6.991,10.485
			c-2.459,2.912-5.438,5.243-8.996,7.185c-3.561,1.876-7.056,3.107-10.485,3.69c-3.431,0.582-6.666,0.517-9.644-0.195
			c-2.978-0.646-5.244-2.007-6.862-4.014c-2.006-4.659-2.912-9.902-2.654-15.663c0.195-5.761,0.972-11.457,2.331-17.022
			c1.359-5.567,2.913-10.745,4.854-15.471c1.878-4.789,3.366-8.479,4.531-11.133c3.365-9.579,7.314-19.546,11.974-29.969
			c4.661-10.419,9.062-20.71,13.14-30.808c4.077-10.097,7.509-19.937,10.161-29.515c2.913-9.32,4.339-17.865,4.339-25.631
			c-0.908,4.659-2.655,10.68-5.374,17.993c-2.912,7.314-6.407,15.599-10.68,24.79c-4.207,9.191-8.996,19.159-14.304,29.839
			l-15.665,31.652c-5.112,10.42-10.031,20.776-14.822,31.004c-4.788,10.226-8.931,19.676-12.491,28.285
			c-1.359,1.812-2.265,2.523-2.848,2.33c-0.583-0.195-0.843-1.035-0.843-2.525c0-1.424,0.195-3.301,0.519-5.502
			c0.324-2.201,0.843-4.336,1.49-6.343c7.572-19.547,15.792-38.707,24.659-57.477c8.868-18.771,17.994-37.477,27.313-56.116
			c5.114-9.774,9.386-20.583,12.817-32.492c3.431-11.911,6.925-22.72,10.484-32.494c1.748-5.112,3.626-7.637,5.502-7.637
			c1.877,0,3.433,1.748,4.661,5.178c1.229,3.431,1.877,8.09,2.006,13.981c0.129,5.89-0.711,12.168-2.524,18.835
			c-4.013,15.082-9.126,30.034-15.34,44.79c-6.213,14.758-12.104,29.839-17.67,45.114c3.366-3.106,7.38-5.242,12.169-6.472
			c4.789-1.23,9.32-1.425,13.656-0.648c4.337,0.776,7.963,2.72,10.81,5.826c2.914,3.106,4.207,7.314,4.014,12.622
			c9.967,1.1,19.547,1.1,28.672,0C962.18,295.437,968.587,292.719,972.406,288.51z M905.091,322.493
			c3.107-6.409,5.178-12.234,6.344-17.347c-5.762-1.102-10.743-2.524-14.822-4.337c-4.077-1.747-6.73-4.207-7.833-7.314
			c-3.753,2.654-7.636,6.537-11.649,11.651c-2.46,7.767-4.531,15.599-6.149,23.495c-1.682,7.896-2.718,15.729-3.171,23.496
			c-0.453,6.667,0.518,10.354,2.848,11.003c2.33,0.646,5.372-0.712,9.191-4.143c3.755-3.43,7.961-8.414,12.491-15.017
			C896.808,337.443,901.078,330.26,905.091,322.493z M911.112,294.207c-1.101-2.912-3.043-4.726-5.825-5.501
			c-2.783-0.776-6.084-0.39-9.839,1.166c2.007,0.905,4.337,1.746,6.991,2.523C905.091,293.106,907.941,293.754,911.112,294.207z"/>
		<path fill="#FFFFFF" d="M1102.311,270.517c-1.552-8.672-4.789-16.894-9.644-24.66c-3.753-6.408-6.797-12.558-8.997-18.318
			l-0.323,0.325c-6.473,11.326-13.787,22.459-22.006,33.462c-8.222,11.003-16.959,21.878-26.149,32.622
			c-9.257,10.745-18.513,21.166-27.833,31.133c-1.359,1.359-2.59,1.878-3.818,1.683c-1.23-0.194-2.137-0.906-2.655-2.006
			c-0.582-1.101-0.712-2.523-0.517-4.143c0.193-1.682,1.1-3.17,2.654-4.531c10.874-9.773,20.646-19.675,29.319-29.838
			c8.675-10.098,16.635-20.454,23.95-31.134c7.313-10.68,14.109-21.423,20.323-32.297c1.359-2.201,2.654-4.468,4.013-6.667
			c-0.453-2.201-0.776-4.338-0.971-6.344c-0.906-11.133,2.59-21.683,10.355-31.652c2.201-2.912,4.467-4.465,6.667-4.659
			c2.201-0.193,4.013,0.583,5.308,2.331c1.359,1.812,1.941,4.272,1.813,7.507c-0.129,3.236-1.489,6.732-4.143,10.486
			c-2.201,5.761-4.659,11.521-7.314,17.347c0,2.654,0.324,5.308,0.971,7.962c1.748,9.125,5.115,17.217,9.969,24.337
			c9.126,13.527,13.528,28.673,13.139,45.307c-0.323,16.635-5.371,33.981-15.146,51.977c-3.366,6.019-6.926,11.392-10.81,16.181
			c-3.884,4.79-8.154,8.415-12.814,11.003c-4.661,2.591-9.58,3.82-14.822,3.82s-10.616-1.555-16.182-4.66
			c-9.773-8.222-14.176-17.412-13.334-27.639c0.906-10.227,6.084-19.678,15.663-28.285c4.208-4.014,8.934-7.574,14.176-10.68
			c5.242-3.107,10.55-5.503,15.987-7.185c5.437-1.684,10.81-2.265,16.117-1.813c2.912,0.194,5.695,0.776,8.35,1.683
			C1104.06,285.663,1103.607,278.09,1102.311,270.517z M1096.292,301.521c-3.56-0.906-6.991-0.97-10.356-0.323
			c-3.302,0.646-6.536,1.941-9.644,3.818c-3.106,1.877-6.021,3.947-8.674,6.149c-6.019,4.854-10.744,10.226-14.175,15.986
			c-3.431,5.762-5.438,11.134-6.02,16.182c-0.583,4.984,0.582,9.32,3.366,13.011c2.782,3.689,7.249,5.695,13.463,6.147
			c4.012-0.646,8.22-2.911,12.686-6.859c4.401-3.884,8.479-8.803,12.169-14.823c3.688-6.02,6.86-12.88,9.515-20.647
			c1.748-5.114,3.106-10.42,4.012-15.987C1100.434,302.88,1098.298,301.974,1096.292,301.521z"/>
	</g>
</g>
</svg>
