<?xml version="1.0" encoding="utf-8"?>
<!-- Generator: Adobe Illustrator 16.2.0, SVG Export Plug-In . SVG Version: 6.00 Build 0)  -->
<!DOCTYPE svg PUBLIC "-//W3C//DTD SVG 1.1//EN" "http://www.w3.org/Graphics/SVG/1.1/DTD/svg11.dtd">
<svg version="1.1" id="Layer_1" xmlns="http://www.w3.org/2000/svg" xmlns:xlink="http://www.w3.org/1999/xlink" x="0px" y="0px"
	 width="1120px" height="210px" viewBox="-139.055 192.64 1120 210" enable-background="new -139.055 192.64 1120 210"
	 xml:space="preserve">
<g>
	<path fill="#FFFFFF" d="M-107.499,361.798c0,4.085,1.402,7.56,4.207,10.364c2.803,2.804,6.277,4.206,10.362,4.206h5.242
		c4.084,0,7.559-1.402,10.363-4.206c2.804-2.805,4.207-6.279,4.207-10.364v-61.263h27.98v61.203c0,7.376-1.829,14.203-5.547,20.42
		c-3.719,6.219-8.656,11.156-14.875,14.874c-6.217,3.72-13.045,5.547-20.421,5.547h-8.716c-7.376,0-14.204-1.827-20.42-5.547
		c-6.219-3.718-11.156-8.655-14.875-14.874c-3.657-6.217-5.485-12.984-5.485-20.36V195.566h27.979V361.798z"/>
	<path fill="#FFFFFF" d="M43.493,399.653V233.482c0-4.083-1.402-7.498-4.207-10.362c-2.804-2.804-6.279-4.207-10.363-4.207h-5.242
		c-4.085,0-7.56,1.402-10.362,4.207c-2.804,2.804-4.207,6.279-4.207,10.362v166.171h-27.979V233.482
		c0-7.376,1.829-14.204,5.547-20.421s8.656-11.155,14.874-14.874c6.217-3.718,13.044-5.547,20.42-5.547h8.718
		c7.376,0,14.204,1.829,20.421,5.547c6.217,3.718,11.155,8.656,14.874,14.874c3.718,6.217,5.547,13.045,5.547,20.421v166.171H43.493
		z"/>
	<path fill="#FFFFFF" d="M97.746,313.946h27.979v47.792c0,4.084,1.402,7.559,4.207,10.362c2.803,2.804,6.279,4.206,10.362,4.206
		h5.243c4.083,0,7.558-1.402,10.362-4.206s4.206-6.278,4.206-10.362v-92.413c0-4.876-0.792-8.961-2.317-12.252
		c-1.584-3.292-4.205-6.401-7.863-9.327l-23.591-18.653c-4.875-3.901-8.473-7.742-10.789-11.521
		c-2.316-3.78-3.475-8.535-3.475-14.143v-7.863h27.979v2.926c0,3.718,0.732,6.583,2.194,8.595c1.463,2.011,3.231,3.84,5.243,5.364
		c2.011,1.585,3.475,2.622,4.205,3.231l19.507,15.422c7.011,5.425,11.582,10.607,13.716,15.423
		c2.132,4.876,3.229,12.618,3.229,23.347v91.864c0,7.376-1.829,14.203-5.547,20.42c-3.718,6.219-8.656,11.156-14.874,14.874
		c-6.217,3.72-13.045,5.547-20.42,5.547h-8.718c-7.376,0-14.202-1.827-20.421-5.547c-6.217-3.718-11.155-8.655-14.874-14.874
		c-3.718-6.217-5.547-13.044-5.547-20.42V313.946L97.746,313.946z"/>
	<path fill="#FFFFFF" d="M242.338,195.566v83.695h0.61c1.951-1.157,4.693-2.254,8.29-3.353c3.596-1.097,7.254-1.584,10.912-1.584
		h1.768c7.376,0,14.203,1.829,20.42,5.547c6.217,3.718,11.156,8.656,14.874,14.874c3.719,6.217,5.547,13.044,5.547,20.422v46.631
		c0,7.376-1.828,14.204-5.547,20.422c-3.718,6.218-8.656,11.156-14.874,14.874s-13.044,5.547-20.42,5.547H255.2
		c-7.375,0-14.203-1.829-20.421-5.547c-6.218-3.718-11.156-8.656-14.874-14.874c-3.718-6.218-5.547-13.046-5.547-20.422V195.566
		H242.338z M276.719,315.105c0-4.085-1.402-7.56-4.207-10.364c-2.804-2.804-6.279-4.206-10.362-4.206h-5.243
		c-4.083,0-7.558,1.402-10.362,4.206c-2.804,2.805-4.206,6.279-4.206,10.364v46.633c0,4.084,1.402,7.559,4.206,10.362
		s6.279,4.206,10.362,4.206h5.243c4.083,0,7.558-1.402,10.362-4.206s4.207-6.278,4.207-10.362V315.105z"/>
	<path fill="#FFFFFF" d="M335.36,225.618c0-9.145,3.23-16.886,9.752-23.346c6.523-6.462,14.265-9.632,23.165-9.632h6.706
		c5.059,0,9.875,1.219,14.447,3.657c4.572,2.439,8.229,5.608,10.911,9.45c2.499-3.901,6.097-7.072,10.668-9.45
		c4.572-2.438,9.387-3.657,14.446-3.657h1.16c4.877,0,9.57,1.219,14.141,3.657c4.572,2.439,8.107,5.608,10.668,9.45
		c2.744-3.901,6.34-7.072,10.912-9.45c4.57-2.438,9.266-3.657,14.141-3.657h6.707c9.143,0,16.885,3.231,23.346,9.632
		c6.463,6.4,9.631,14.202,9.631,23.346v64.433h-27.979v-59.739c0-3.109-1.098-5.791-3.23-8.046
		c-2.133-2.256-4.754-3.353-7.863-3.353h-1.465c-3.475,0-6.277,1.097-8.289,3.231c-2.012,2.132-3.047,4.876-3.047,8.167v41.086
		h-26.518v-41.086c0-3.109-1.098-5.791-3.23-8.046c-2.135-2.256-4.756-3.353-7.863-3.353h-1.463c-3.293,0-6.036,1.097-8.169,3.231
		c-2.133,2.132-3.23,4.876-3.23,8.167v41.086h-26.517v-41.086c0-3.109-1.097-5.791-3.23-8.046c-2.134-2.256-4.755-3.353-7.864-3.353
		h-1.462c-3.292,0-6.035,1.097-8.169,3.231c-2.133,2.132-3.23,4.876-3.23,8.167v58.032c0,5.852,1.706,10.85,5.12,14.996
		c3.413,4.206,7.436,7.559,12.069,10.18c4.693,2.622,11.277,5.853,19.811,9.754c3.901,1.585,6.827,2.804,8.718,3.779l19.813,9.326
		c18.285,8.535,32.367,16.276,42.242,23.165c9.938,6.888,16.824,13.472,20.664,19.688c3.902,6.219,5.852,13.045,5.852,20.421H469.65
		c-0.793-7.558-8.596-15.909-23.469-24.931c-14.873-9.023-30.479-16.947-46.815-23.775c-17.861-7.558-33.71-13.409-47.548-17.494
		c-4.083-1.158-10.424-2.134-18.957-2.926v-27.918l7.009,0.304v-0.609c-1.34-1.95-2.499-4.511-3.353-7.742
		c-0.854-3.23-1.341-6.644-1.341-10.362v-58.581H335.36z"/>
	<path fill="#FFFFFF" d="M597.843,223.119c-2.803-2.804-6.277-4.207-10.361-4.207h-3.779c-4.084,0-7.559,1.402-10.363,4.207
		s-4.207,6.279-4.207,10.362v11.644h-25.357v-11.644c0-7.376,1.83-14.204,5.547-20.421c3.719-6.217,8.656-11.155,14.873-14.874
		c6.219-3.718,13.045-5.547,20.422-5.547h4.633c7.375,0,14.203,1.829,20.42,5.547c6.219,3.718,11.156,8.656,14.875,14.874
		s5.547,13.045,5.547,20.421v128.256c0,7.376-1.828,14.203-5.547,20.42c-3.719,6.219-8.656,11.156-14.875,14.874
		c-6.217,3.72-13.045,5.547-20.42,5.547h-6.096c-7.375,0-14.203-1.827-20.422-5.547c-6.217-3.718-11.154-8.655-14.873-14.874
		c-3.719-6.217-5.547-13.044-5.547-20.42v-47.792h25.357v47.792c0,4.084,1.402,7.559,4.207,10.362s6.279,4.206,10.361,4.206h5.244
		c4.084,0,7.559-1.402,10.361-4.206c2.805-2.804,4.207-6.278,4.207-10.362V233.482C602.111,229.398,600.648,225.984,597.843,223.119
		z"/>
	<path fill="#FFFFFF" d="M711.835,223.119c-2.805-2.804-6.279-4.207-10.361-4.207h-3.779c-4.086,0-7.561,1.402-10.365,4.207
		c-2.803,2.804-4.205,6.279-4.205,10.362v11.644h-25.357v-11.644c0-7.376,1.826-14.204,5.547-20.421
		c3.717-6.217,8.656-11.155,14.873-14.874c6.217-3.718,13.045-5.547,20.42-5.547h4.635c7.375,0,14.203,1.829,20.42,5.547
		c6.217,3.718,11.156,8.656,14.873,14.874c3.719,6.217,5.547,13.045,5.547,20.421v128.256c0,7.376-1.828,14.203-5.547,20.42
		c-3.717,6.219-8.656,11.156-14.873,14.874c-6.217,3.72-13.045,5.547-20.42,5.547h-6.096c-7.377,0-14.203-1.827-20.422-5.547
		c-6.219-3.718-11.154-8.655-14.875-14.874c-3.717-6.217-5.547-13.044-5.547-20.42v-47.792h25.359v47.792
		c0,4.084,1.402,7.559,4.207,10.362c2.803,2.804,6.277,4.206,10.361,4.206h5.244c4.082,0,7.557-1.402,10.361-4.206
		s4.207-6.278,4.207-10.362V233.482C716.103,229.398,714.7,225.984,711.835,223.119z"/>
	<path fill="#FFFFFF" d="M770.294,315.105c0-9.938,3.23-18.653,9.631-26.213c6.4-7.559,14.447-12.252,24.201-14.02v-41.391
		c0-3.718-1.037-6.217-3.049-7.558c-2.012-1.342-5.182-2.439-9.447-3.231c-5.061-0.792-8.656-1.768-10.791-2.926
		c-3.475-1.951-5.852-4.267-7.133-7.01c-1.277-2.743-1.889-6.157-1.889-10.18v-7.01h27.676c0,2.926,1.037,4.937,3.23,5.974
		c2.135,1.097,5.607,2.072,10.484,3.048c7.193,1.34,12.131,3.474,14.875,6.4c2.742,2.926,4.082,7.863,4.082,14.874v50.169
		c8.352,2.743,15.18,7.68,20.545,14.874c5.363,7.193,8.045,15.239,8.045,24.201v46.633c0,7.376-1.828,14.203-5.547,20.42
		c-3.717,6.219-8.656,11.156-14.873,14.874c-6.219,3.72-13.047,5.547-20.422,5.547h-8.717c-7.375,0-14.203-1.827-20.42-5.547
		c-6.219-3.718-11.156-8.655-14.873-14.874c-3.721-6.217-5.549-13.044-5.549-20.42v-46.633H770.294z M802.54,372.1
		c2.805,2.804,6.279,4.206,10.363,4.206h5.242c4.084,0,7.559-1.402,10.363-4.206s4.205-6.278,4.205-10.362v-46.633
		c0-4.085-1.4-7.56-4.205-10.364c-2.805-2.804-6.279-4.206-10.363-4.206h-5.242c-4.084,0-7.559,1.402-10.363,4.206
		c-2.805,2.805-4.207,6.279-4.207,10.364v46.633C798.275,365.822,799.736,369.297,802.54,372.1z"/>
	<path fill="#FFFFFF" d="M949.327,399.653V233.482c0-4.083-1.402-7.498-4.205-10.362c-2.805-2.804-6.279-4.207-10.363-4.207h-5.242
		c-4.086,0-7.561,1.402-10.363,4.207c-2.805,2.804-4.205,6.279-4.205,10.362v166.171h-27.98V233.482
		c0-7.376,1.828-14.204,5.547-20.421s8.656-11.155,14.873-14.874c6.219-3.718,12.984-5.547,20.422-5.547h8.717
		c7.377,0,14.203,1.829,20.42,5.547c6.219,3.718,11.156,8.656,14.875,14.874c3.717,6.217,5.547,13.045,5.547,20.421v166.171H949.327
		z"/>
</g>
</svg>
